HIERARCHY
ROOT Spine
{
    OFFSET 0.0 0.0 -0.0
    CHANNELS 6 Xposition Yposition Zposition Zrotation Xrotation Yrotation
    JOINT ShoulderCenter
    {
        OFFSET 0.0 31.613771438598633 0.0
        CHANNELS 3 Zrotation Xrotation Yrotation
        JOINT LeftShoulder
        {
            OFFSET 16.985023498535156 0.0 0.0
            CHANNELS 3 Zrotation Xrotation Yrotation
            JOINT LeftElbow
            {
                OFFSET 30.426177978515625 0.0 0.0
                CHANNELS 3 Zrotation Xrotation Yrotation
                JOINT LeftHand
                {
                    OFFSET 28.49898338317871 0.0 0.0
                    CHANNELS 3 Zrotation Xrotation Yrotation
                    End Site
                    {
                        OFFSET 11.399593353271484 0.0 0.0
                    }
                }
            }
        }
        JOINT RightShoulder
        {
            OFFSET -16.985023498535156 0.0 0.0
            CHANNELS 3 Zrotation Xrotation Yrotation
            JOINT RightElbow
            {
                OFFSET -30.426177978515625 0.0 0.0
                CHANNELS 3 Zrotation Xrotation Yrotation
                JOINT RightHand
                {
                    OFFSET -28.49898338317871 0.0 0.0
                    CHANNELS 3 Zrotation Xrotation Yrotation
                    End Site
                    {
                        OFFSET -11.399593353271484 0.0 0.0
                    }
                }
            }
        }
        End Site
        {
            OFFSET 0.0 12.645508766174316 0.0
        }
    }
    JOINT LeftHip
    {
        OFFSET 18.05918145368515 -18.05918145368515 0.0
        CHANNELS 3 Zrotation Xrotation Yrotation
        JOINT LeftKnee
        {
            OFFSET 0.0 -34.998138427734375 0.0
            CHANNELS 3 Zrotation Xrotation Yrotation
            JOINT LeftFoot
            {
                OFFSET 0.0 -44.41937255859375 0.0
                CHANNELS 3 Zrotation Xrotation Yrotation
                End Site
                {
                    OFFSET 0.0 0.0 17.767751693725586
                }
            }
        }
    }
    JOINT RightHip
    {
        OFFSET -18.05918145368515 -18.05918145368515 0.0
        CHANNELS 3 Zrotation Xrotation Yrotation
        JOINT RightKnee
        {
            OFFSET 0.0 -34.998138427734375 0.0
            CHANNELS 3 Zrotation Xrotation Yrotation
            JOINT RightFoot
            {
                OFFSET 0.0 -44.41937255859375 0.0
                CHANNELS 3 Zrotation Xrotation Yrotation
                End Site
                {
                    OFFSET 0.0 0.0 17.767751693725586
                }
            }
        }
    }
}
MOTION
Frames: 10
Frame Time: 0.03333333333333333
56.099998474121094 -0.0 32.10000228881836 -1.4456488839497392 -2.167209397156836 -13.72686809810788 2.5531338813844788e-08 1.2652882094696607e-07 -7.548092003006716 123.27078436941683 -24.019117405039832 -138.38752218579558 1.9885590668172393e-06 3.824210317775158e-06 134.85601740307115 0.0 0.0 0.0 -109.70753873434919 -10.064159116697875 -167.53012864579273 2.742688276220597e-06 1.3967746210023663e-06 -126.52855489746457 1.7655625192200634e-31 3.180554681463516e-15 -6.361109362927032e-15 -4.300734390321909 4.469583459939641 -27.789319783970328 1.4945561884293839 7.705741676258705 -10.927930806176386 1.155202038942815e-32 -7.951386703658792e-16 1.6648215910785596e-15 9.799810392104806 -16.046237460778023 0.5704757767206894 -9.697618108703708 21.517076107801827 29.47604189828933 0.0 0.0 -8.386228164015132e-17
55.900001525878906 0.10000000149011612 32.10000228881836 -1.4456351801188723 -2.3476121222960473 -13.923236474401191 -3.4955652878470853e-08 -1.0688003002403921e-07 -7.696036036496733 123.57609563249261 -24.195845819888987 -138.2368978275855 -2.1369374834983696e-06 -6.836600867883365e-06 134.96507937788004 0.0 0.0 0.0 -109.40627156524663 -9.272646398688083 -166.9850677462446 1.4998048649486084e-06 -4.4980512169091076e-07 -126.24640359635112 -6.361109362927033e-15 3.1805546814635168e-15 -6.361109362927033e-15 -4.1826807265716575 4.664992217312433 -28.00049335856361 1.487029195241325 7.795681707343592 -11.209855109466949 -5.963540027744096e-16 -9.939233379573495e-17 4.745983938746342e-15 9.5422396498123 -15.542080484561637 0.7819295547470665 -8.561122823637175 20.909542957272684 27.77523541973448 0.0 0.0 3.2923710569837183e-16
55.80000305175781 0.20000000298023224 32.20000076293945 -1.4456351629585975 -2.888534438562066 -14.312480848993758 1.0706909217104085e-07 6.179385786027324e-08 -7.34077668465293 123.70275892244612 -24.816698360911985 -138.20075294567386 -6.138883249093044e-07 -1.6952328576199853e-06 135.072960418371 6.361109362927033e-15 3.531125038440127e-31 6.361109362927033e-15 -109.2017590769366 -9.017085014288286 -166.39157704097417 1.4235206490631311e-06 -1.796748336849336e-08 -126.5696184716827 -3.531125038440127e-31 6.3611093629270335e-15 6.3611093629270335e-15 -4.435592302646014 5.483387774794711 -28.160308864619232 1.835431318347946 7.727584494454318 -11.269853049273278 0.0 0.0 -2.3357198441997705e-15 9.134838353770379 -14.901442673831864 0.5555448630846719 -7.727834519846238 20.54531753618679 26.662462007689427 0.0 0.0 7.454425034680117e-16
55.69999694824219 0.20000000298023224 32.30000305175781 -1.6211487171529646 -3.2384119290045286 -14.768607183183978 -2.9910118317006292e-09 1.888901382298164e-09 -6.98414780409682 123.85308324033173 -24.93173539999264 -138.34462508280592 -6.955687731314421e-07 -1.8166216853871846e-08 135.22717392647252 0.0 6.3611093629270335e-15 0.0 -109.04325708836689 -9.066204842323927 -166.2588372609465 -3.0831938355478352e-06 9.928649691361628e-07 -126.75712008710103 -1.2722218725854067e-14 0.0 0.0 -4.265068450591971 6.573827126643542 -28.9521673406966 2.191811008311112 6.939456524687687 -10.250425266517839 4.752277044531543e-32 -8.945310041616142e-16 6.087780444988762e-15 8.999274816082245 -14.540596548629702 0.28172736145678684 -7.295957066502431 20.372942085204574 26.125309804212826 0.0 0.0 -5.963540027744093e-16
55.599998474121094 0.30000001192092896 32.30000305175781 -1.6262599476753599 -3.6086440186739854 -15.032567478524761 1.2704051650843125e-08 2.1611279562643242e-07 -6.678722866554221 123.76040579277199 -25.155913890156828 -138.26910813841053 1.7904158520829647e-06 -2.3363254442355492e-06 135.3596715417117 6.361109362927033e-15 3.180554681463516e-15 -6.361109362927033e-15 -108.77981452855353 -9.14511394196939 -166.2027628256574 1.774641351864451e-06 -1.585243739649105e-06 -127.2463705534786 0.0 0.0 -6.361109362927035e-15 -4.242108052159336 7.648724340966904 -29.926015159385432 2.3820752516817665 5.798386133587672 -8.541682922851262 -1.987846675914698e-16 -4.310455369189608e-35 2.4848083448933725e-17 8.445819025918166 -14.132887284367214 0.19204436371143704 -6.414700164727552 20.32628502924836 25.992782373695697 1.4008979949866227e-34 -2.4848083448933725e-17 6.460501696722769e-16
55.5 0.4000000059604645 32.30000305175781 -1.806838552405921 -3.9680346529659354 -14.754301369377854 4.052405389630657e-08 6.055370945414904e-08 -6.832982856074347 123.59552169452482 -25.088012598576302 -138.44089048766114 -2.190934987374484e-06 8.40538303318856e-07 135.536598950849 -6.3611093629270335e-15 3.1805546814635168e-15 3.1805546814635168e-15 -108.64391232466804 -9.496592653265438 -166.36728283947403 -2.2714972401817224e-06 -2.2542420829121053e-06 -127.46213521108609 0.0 0.0 0.0 -3.9908711806756325 8.25701843382099 -29.99496620340474 2.4795112854882353 5.278843419098388 -7.82282385154628 0.0 0.0 2.5345045117912397e-15 8.26178022035784 -13.780215841321487 -0.20019967412608813 -5.929757431700619 20.268365891370472 25.67453264451674 3.975693351829397e-16 -1.9878466759146985e-16 -1.782849987460995e-15
55.5 0.4000000059604645 32.30000305175781 -1.9873812046241268 -4.327002469714519 -14.710921366907296 -1.0027239872347818e-07 -1.3069223017175597e-07 -6.690244398659486 123.66391275122741 -25.448417599957107 -138.32996466078367 -1.9913020504826838e-06 8.493586157221778e-07 135.4779066885503 6.3611093629270335e-15 3.1805546814635168e-15 -1.7655625192200634e-31 -108.18889707916657 -9.609818001533649 -166.66273079591357 2.783537347343924e-06 1.665078497852997e-06 -127.63799514559257 -3.531125038440127e-31 -6.3611093629270335e-15 -6.3611093629270335e-15 -3.873837387989488 8.5027333692193 -29.878408701369565 2.4867311828671315 5.480860017010309 -8.268086443586459 -1.987846675914698e-16 -2.5216163909759208e-33 1.453612881762623e-15 8.099254661129311 -13.247579989071529 -0.307524247522402 -5.338721786309892 19.948961527877035 24.73233023616112 0.0 0.0 3.106010431116715e-17
55.5 0.5 32.30000305175781 -1.9936654158807627 -4.520748706122389 -14.700207082792382 -1.4957200189996826e-08 3.899889782541338e-07 -6.35918204924375 123.67104515035777 -25.238195018518038 -138.2009593219218 -1.57972837505515e-07 2.300358506590293e-06 135.60481362299237 -6.3611093629270335e-15 0.0 0.0 -108.0803438694279 -9.961427540742037 -167.13970506939802 -5.686447384494183e-07 -2.7066405210468866e-06 -127.15682867755172 0.0 0.0 0.0 -3.9172107486891545 8.692041981031478 -29.613010431782183 2.511976881646736 5.469368471744186 -8.336259237076844 0.0 0.0 -3.714788475615591e-15 8.086527360770821 -13.207614561454017 -0.9020542082528996 -5.588071932050177 20.03968596780535 25.017398541883367 -3.975693351829397e-16 -2.3707504530542844e-33 6.833222948456776e-16
55.5 0.5 32.30000305175781 -2.174738489409488 -4.700249579253241 -14.741074720920418 -6.668234816278146e-08 7.180928646782763e-07 -6.106853785793816 123.60031886190305 -25.420990431645272 -138.10625481835822 3.2151457553554133e-06 2.7134153218535578e-06 135.3123706956647 0.0 0.0 0.0 -107.78910443555186 -10.256938654541715 -167.639942553425 1.1074512477788759e-06 1.7307363536950492e-06 -126.58318272901957 -6.361109362927032e-15 0.0 0.0 -3.8245810349517884 9.059426736399338 -29.452989043079196 2.620821698936223 5.163331223152133 -7.80713461429061 -1.9878466759146977e-16 8.94531004161614e-16 9.318031293350144e-16 8.077164210761417 -13.078632992750972 -1.2408835464768133 -5.569654691317337 20.104302704602997 25.404386859850042 -1.1180243613835546e-34 2.4848083448933722e-17 5.155977315653747e-16
55.5 0.5 32.400001525878906 -2.3557817180894647 -4.879560793847871 -14.745536403974778 1.0638135014236571e-07 5.7446735966113474e-08 -5.789471255945278 123.09323152121218 -25.046496601432494 -138.52864726459208 3.195548067342113e-06 -3.863269159788408e-06 135.36262046823765 -6.3611093629270335e-15 0.0 0.0 -107.47903188758264 -10.555566541087964 -168.10617766875563 -2.939650451453725e-06 1.8001509454963767e-06 -125.74263536832171 -1.2722218725854067e-14 3.180554681463515e-15 1.2722218725854067e-14 -3.7402517174027268 9.440107903332693 -29.336244650590363 2.839096923401546 4.9467097454491755 -7.551930900123244 2.3017831671472508e-32 -7.951386703658792e-16 3.3172191404326524e-15 8.19642312950654 -12.863030983898353 -1.5852102659923468 -5.679448832622817 20.07474051373407 25.387802494977343 -2.1417575115660865e-34 -2.4848083448933725e-17 -9.877113170951156e-16
